<?xml version='1.0' encoding='utf-8' standalone='yes' ?><svg xmlns="http://www.w3.org/2000/svg" version="1.1" style="stroke-linejoin:round; stroke-linecap:round; fill:none; stroke:black;" width="1620" height="1151" xmlns:xlink="http://www.w3.org/1999/xlink" viewBox="0 0 1620 1151"><g><path d="M 198.83975 201.48749 L 193.39615 199.00253 L 193.39615 199.00253 L 190.08267 197.58255 L 187.83423 197.58255 L 187.83423 197.58255 L 185.58582 199.7125 L 184.16574 202.67078 L 184.16574 202.67078 L 182.62735 207.52237 L 181.08893 213.6756 L 178.95883 221.7221 L 178.95883 221.7221 L 176.59207 231.54361 L 174.22528 242.5484 L 171.97687 254.38153 L 169.61008 267.39798 L 169.61008 267.39798 L 167.24332 281.24274 L 165.23154 294.96915 L 165.23154 294.96915 L 163.45648 308.22223 L 161.91806 321.12033 L 160.49802 333.4268 L 159.5513 344.31326 L 159.5513 344.31326" stroke-width="2.5" /><path d="M 159.5513 344.31326 L 158.84125 353.5431 L 158.36792 360.7613" stroke-width="2.0" /><path d="M 158.36792 360.7613 L 158.36792 360.7613" stroke-width="2.0" /></g><g><path d="M 216.11719 175.09961 L 217.0639 175.45462 L 222.03412 180.42453 L 222.03412 180.42453 L 225.70264 186.45941 L 230.31784 196.04425 L 234.8147 207.9957 L 234.8147 207.9957 L 238.83823 222.19543 L 242.74341 238.05182 L 246.7669 254.26321 L 246.7669 254.26321 L 250.90878 270.9479 L 255.05063 287.04095 L 259.07416 301.47736 L 259.07416 301.47736 L 262.861 314.4938 L 266.64783 325.73526 L 270.43466 335.79343 L 270.43466 335.79343 L 273.98483 346.08823 L 277.0616 356.38306 L 279.54675 365.37622 L 279.54675 365.37622" stroke-width="2.5" /><path d="M 279.54675 365.37622 L 281.5585 373.3044 L 282.97858 379.93097 L 283.80695 384.1909 L 283.80695 384.1909" stroke-width="2.0" /><path d="M 283.80695 384.1909 L 284.0436 386.7942 L 284.0436 387.6225" stroke-width="1.5" /><path d="M 284.0436 387.6225 L 284.0436 387.6225" stroke-width="1.5" /></g><g><path d="M 215.64383 311.0622 L 210.55527 307.63058 L 210.55527 307.63058 L 204.87503 302.66068 L 201.79822 298.63742 L 199.78644 295.32413 L 199.78644 295.32413" stroke-width="3.0" /><path d="M 199.78644 295.32413 L 198.60306 292.4842 L 198.1297 290.11755 L 198.1297 287.51428 L 198.1297 287.51428 L 199.07642 284.201 L 201.08817 279.94107 L 204.75668 274.0245 L 204.75668 274.0245 L 210.08191 266.8063 L 217.0639 259.4698 L 225.34763 252.13324 L 225.34763 252.13324 L 234.45969 245.03336 L 244.16345 238.28848 L 254.57727 232.13525 L 254.57727 232.13525" stroke-width="2.5" /><path d="M 254.57727 232.13525 L 265.3461 226.5737 L 276.23325 221.36713 L 276.23325 221.36713" stroke-width="2.0" /><path d="M 276.23325 221.36713 L 276.23325 221.36713" stroke-width="2.0" /></g><g><path d="M 327.82892 209.77066 L 328.18396 210.3623 L 328.18396 210.3623" stroke-width="3.0" /><path d="M 328.18396 210.3623 L 329.36734 212.9656 L 331.7341 218.76382 L 334.57425 226.33704 L 334.57425 226.33704 L 337.5327 235.44855 L 340.37283 245.8617 L 343.21295 257.45816 L 343.21295 257.45816 L 345.8164 270.1196 L 348.41986 283.49103 L 348.41986 283.49103 L 350.78665 296.7441 L 353.03506 309.99722 L 355.2835 323.2503 L 357.53195 336.0301 L 359.66205 347.8632 L 359.66205 347.8632" stroke-width="2.5" /><path d="M 359.66205 347.8632 L 359.66205 347.8632" stroke-width="2.5" /></g><g><path d="M 363.8039 152.73502 L 363.92224 152.85333 L 364.27725 153.68167 L 364.27725 153.68167" stroke-width="3.0" /><path d="M 364.27725 153.68167 L 368.0641 158.65158 L 368.0641 158.65158 L 370.07584 161.25485 L 372.08762 163.85815 L 374.45438 167.0531 L 377.17618 171.07635 L 377.17618 171.07635 L 380.13464 175.57294 L 382.97476 180.6612 L 385.45987 186.45941 L 385.45987 186.45941" stroke-width="2.5" /><path d="M 385.45987 186.45941 L 387.35327 192.61264 L 388.65503 199.12085 L 389.2467 205.27408 L 389.2467 205.27408 L 389.12836 211.30896 L 388.41833 217.46219 L 386.9983 223.37875 L 386.9983 223.37875 L 384.9865 229.29532 L 382.1464 234.85687 L 378.59622 240.41846 L 378.59622 240.41846 L 374.8094 245.8617 L 371.02255 250.23993 L 367.35406 253.67154 L 367.35406 253.67154 L 364.1589 256.1565 L 362.0288 257.6948 L 362.0288 257.6948 L 360.72708 258.52313 L 361.0821 258.52313 L 361.0821 258.52313 L 361.6738 258.16812 L 361.6738 258.16812 L 365.22397 259.70645 L 368.30078 260.77142 L 371.73257 262.1914 L 371.73257 262.1914 L 375.7561 263.84802 L 380.0163 265.623 L 383.92148 267.75296 L 383.92148 267.75296 L 387.58997 270.1196 L 390.7851 272.4862 L 393.38855 275.20782 L 393.38855 275.20782 L 395.28198 278.28445 L 396.70203 281.36105 L 397.53046 284.556 L 397.53046 284.556 L 397.64874 288.3426 L 397.05707 293.43085 L 395.40033 299.11075 L 395.40033 299.11075 L 392.44183 306.32895 L 387.82666 316.0321 L 381.43637 328.1019 L 381.43637 328.1019 L 373.626 340.88165 L 365.10562 353.42477 L 356.11188 365.49457 L 356.11188 365.49457 L 346.64478 377.091 L 337.65103 387.85913 L 329.249 396.85236 L 329.249 396.85236" stroke-width="2.0" /><path d="M 329.249 396.85236 L 321.55698 403.7155" stroke-width="1.5" /><path d="M 321.55698 403.7155 L 321.55698 403.7155" stroke-width="1.5" /></g><g><path d="M 502.4969 226.69202 L 502.61517 226.5737 L 502.61517 226.5737 L 502.61517 226.5737" stroke-width="2.5" /><path d="M 502.61517 226.5737 L 502.37854 226.33704 L 502.37854 226.33704 L 501.7868 226.81036 L 497.88165 226.81036 L 497.88165 226.81036" stroke-width="3.0" /><path d="M 497.88165 226.81036 L 494.44983 227.04703 L 490.42633 227.75702 L 485.69275 229.29532 L 485.69275 229.29532 L 480.0125 231.89859 L 473.74054 235.44855 L 467.35028 240.41846 L 467.35028 240.41846" stroke-width="2.5" /><path d="M 467.35028 240.41846 L 460.3683 246.69 L 452.55792 254.49988 L 444.51086 264.0847 L 444.51086 264.0847 L 436.9372 274.85284 L 429.95526 286.21265 L 423.32825 297.57242 L 423.32825 297.57242 L 418.00305 309.05057 L 414.33453 320.1737 L 412.2044 330.3502 L 412.2044 330.3502 L 411.61273 338.98837 L 412.79614 346.20657 L 415.51788 352.0048 L 415.51788 352.0048 L 420.01477 356.50137 L 426.4051 360.05133 L 433.97876 362.5363 L 433.97876 362.5363 L 442.49915 363.95624 L 451.8479 364.42957 L 461.90668 363.3646 L 461.90668 363.3646" stroke-width="2.0" /><path d="M 461.90668 363.3646 L 472.3205 360.99796 L 483.20764 357.44803 L 494.44983 352.47812 L 505.57367 346.08823" stroke-width="1.5" /><path d="M 505.57367 346.08823 L 505.57367 346.08823" stroke-width="1.5" /></g><g><path d="M 605.45154 194.50592 L 605.21484 194.97925 L 604.1498 198.76587 L 602.13806 205.98407 L 602.13806 205.98407" stroke-width="3.0" /><path d="M 602.13806 205.98407 L 599.5346 216.63388 L 596.93115 228.82199 L 594.3277 241.36511 L 594.3277 241.36511" stroke-width="3.5" /><path d="M 594.3277 241.36511 L 591.72424 254.02655 L 589.3575 266.33298 L 587.109 278.40277 L 587.109 278.40277" stroke-width="3.0" /><path d="M 587.109 278.40277 L 585.0973 289.64423 L 583.3222 300.41238 L 581.66547 309.6422 L 581.66547 309.6422" stroke-width="2.5" /><path d="M 581.66547 309.6422 L 580.0087 317.68875 L 578.352 325.02527 L 576.69525 330.70517 L 576.69525 330.70517" stroke-width="2.0" /><path d="M 576.69525 330.70517 L 575.1568 334.13678" stroke-width="1.5" /><path d="M 575.1568 334.13678 L 575.1568 334.13678" stroke-width="1.5" /></g><g><path d="M 584.97894 269.4096 L 588.8841 253.43488 L 592.43427 238.99847 L 592.43427 238.99847 L 595.98444 226.21869 L 599.5346 215.09558 L 602.96643 205.51074 L 602.96643 205.51074" stroke-width="2.0" /><path d="M 602.96643 205.51074 L 606.39825 196.04425 L 609.71173 187.05106 L 609.71173 187.05106 L 613.0252 179.00455 L 616.102 171.668 L 618.70544 165.9881 L 620.9539 162.31985 L 620.9539 162.31985" stroke-width="2.5" /><path d="M 620.9539 162.31985 L 623.084 160.18988 L 623.084 160.18988 L 624.6224 160.18988 L 627.4625 162.67484 L 627.4625 162.67484 L 630.89435 166.57977 L 633.4978 170.95801 L 636.5746 177.22958 L 636.5746 177.22958 L 639.6514 184.92111 L 642.7282 194.15094 L 645.56836 205.15573 L 645.56836 205.15573" stroke-width="3.0" /><path d="M 645.56836 205.15573 L 648.29016 217.34387 L 650.77527 230.00531 L 652.90533 242.19342 L 652.90533 242.19342 L 654.79877 254.02655 L 656.33716 265.268 L 657.6389 275.56284 L 657.6389 275.56284 L 658.7039 285.266 L 659.5323 294.3775 L 660.124 303.48898 L 660.124 303.48898 L 660.3607 311.7722 L 660.3607 318.75372 L 659.8873 324.55194 L 659.8873 324.55194 L 659.1773 329.52185 L 658.2306 333.19012 L 658.2306 333.19012" stroke-width="2.5" /><path d="M 658.2306 333.19012 L 655.86383 336.38507 L 653.7337 336.26675 L 650.4202 334.6101 L 650.4202 334.6101" stroke-width="2.0" /><path d="M 650.4202 334.6101 L 645.92334 330.94183 L 641.0715 324.55194 L 636.2196 316.15042 L 636.2196 316.15042" stroke-width="1.5" /><path d="M 636.2196 316.15042 L 631.486 306.44727 L 626.9892 296.03412 L 622.61066 285.85764 L 622.61066 285.85764 L 618.35046 276.2728 L 614.68195 267.8713 L 611.36847 261.0081 L 611.36847 261.0081" stroke-width="2.0" /><path d="M 611.36847 261.0081 L 608.41 254.97318 L 605.92487 249.64828 L 603.91315 245.38837 L 603.91315 245.38837" stroke-width="2.5" /><path d="M 603.91315 245.38837 L 602.72974 242.31174 L 602.13806 240.06345 L 602.13806 240.06345" stroke-width="3.0" /><path d="M 602.13806 240.06345 L 602.2564 239.70847 L 602.2564 239.70847 L 603.0848 239.82678 L 606.0432 239.11682 L 612.0785 238.05182 L 612.0785 238.05182 L 620.2439 237.34183 L 629.4743 236.75018 L 639.17804 236.15854 L 639.17804 236.15854" stroke-width="2.5" /><path d="M 639.17804 236.15854 L 649.1185 235.80353 L 659.05896 235.56686 L 659.05896 235.56686" stroke-width="2.0" /><path d="M 659.05896 235.56686 L 659.05896 235.56686" stroke-width="2.0" /></g><g><path d="M 691.72046 180.54285 L 691.8388 180.89786 L 692.5488 182.79114 L 692.5488 182.79114 L 694.56055 187.05106 L 697.4007 193.91428 L 700.24084 201.48749 L 700.24084 201.48749 L 702.96265 209.534 L 705.80273 219.11884 L 708.7612 230.24197 L 708.7612 230.24197 L 711.48303 242.43008 L 713.96814 254.6182 L 716.0982 267.04297 L 716.0982 267.04297" stroke-width="3.0" /><path d="M 716.0982 267.04297 L 717.39996 279.23108 L 717.39996 279.23108" stroke-width="2.5" /><path d="M 717.39996 279.23108 L 717.39996 279.23108" stroke-width="2.5" /></g><g><path d="M 732.3106 153.91833 L 732.42896 153.79999 L 732.42896 153.79999 L 732.42896 154.155 L 732.5473 154.50998 L 732.5473 154.50998 L 732.42896 154.74664 L 732.42896 154.74664 L 732.66565 155.81161 L 733.7307 158.41492 L 734.91406 162.9115 L 734.91406 162.9115" stroke-width="3.0" /><path d="M 734.91406 162.9115 L 735.38745 168.11807 L 735.0324 173.91629 L 733.96735 180.42453 L 733.96735 180.42453" stroke-width="2.5" /><path d="M 733.96735 180.42453 L 731.9556 187.28772 L 728.64215 195.0976 L 724.50024 202.78912 L 724.50024 202.78912" stroke-width="2.0" /><path d="M 724.50024 202.78912 L 719.8851 209.29733 L 715.03314 215.2139 L 709.9446 220.30215 L 709.9446 220.30215 L 705.3294 223.85208 L 701.77924 225.98203 L 701.77924 225.98203 L 698.22906 226.81036 L 698.5841 226.10037 L 698.5841 226.10037" stroke-width="2.5" /><path d="M 698.5841 226.10037 L 699.6491 225.0354 L 701.6609 223.73373 L 701.6609 223.73373 L 705.21106 221.84045 L 710.1813 219.82883 L 716.0982 217.58054 L 716.0982 217.58054 L 722.25183 215.56888 L 728.99713 214.03058 L 735.50574 212.72894 L 735.50574 212.72894 L 741.0677 211.78229 L 745.91956 211.4273 L 750.17975 211.90063 L 750.17975 211.90063 L 753.7299 212.49228 L 756.3334 213.20227 L 758.5818 214.62225 L 758.5818 214.62225 L 759.64685 217.34387 L 759.2919 220.06549 L 759.2919 220.06549 L 758.10846 224.20706 L 755.505 229.88696 L 751.4815 237.46017 L 751.4815 237.46017 L 745.91956 246.69 L 739.64764 256.98483 L 732.3106 268.2263 L 732.3106 268.2263 L 724.14526 280.05942 L 715.6249 292.01086 L 707.22284 304.08066 L 707.22284 304.08066" stroke-width="2.0" /><path d="M 707.22284 304.08066 L 699.5308 315.55878 L 699.5308 315.55878" stroke-width="1.5" /><path d="M 699.5308 315.55878 L 699.5308 315.55878" stroke-width="1.5" /></g><g><path d="M 841.6556 155.81161 L 838.3421 156.75827 L 833.96356 158.65158 L 828.6383 161.72818 L 828.6383 161.72818" stroke-width="3.0" /><path d="M 828.6383 161.72818 L 823.0764 166.34311 L 818.1062 171.90466 L 813.6093 178.4129 L 813.6093 178.4129 L 808.4024 187.05106 L 802.72217 199.00253 L 797.27856 212.84726 L 797.27856 212.84726 L 793.0184 227.04703 L 790.05994 240.1818 L 788.63983 251.65991 L 788.63983 251.65991 L 788.7582 261.71808 L 790.53326 270.47458 L 793.7284 277.69278 L 793.7284 277.69278" stroke-width="2.5" /><path d="M 793.7284 277.69278 L 798.2253 283.13602 L 804.02386 287.27762 L 810.76917 289.76257 L 810.76917 289.76257" stroke-width="2.0" /><path d="M 810.76917 289.76257 L 810.76917 289.76257" stroke-width="2.0" /></g><g><path d="M 915.2622 119.602264 L 915.2622 119.7206 L 915.2622 119.7206 L 912.4221 126.34715 L 912.4221 126.34715 L 909.34534 134.63034 L 905.79517 144.45181 L 902.4817 154.74664 L 902.4817 154.74664 L 899.2865 165.63312 L 896.2097 177.58456 L 892.89624 190.71933 L 892.89624 190.71933" stroke-width="3.0" /><path d="M 892.89624 190.71933 L 889.58276 204.32742 L 886.506 217.22552 L 883.66583 228.70364 L 883.66583 228.70364" stroke-width="2.5" /><path d="M 883.66583 228.70364 L 881.1807 238.17017 L 879.2873 245.62503" stroke-width="2.0" /><path d="M 879.2873 245.62503 L 879.2873 245.62503" stroke-width="2.0" /></g><g><path d="M 952.65735 113.44905 L 955.14246 111.20076 L 955.14246 111.20076" stroke-width="2.5" /><path d="M 955.14246 111.20076 L 955.49744 111.31909 L 955.379 111.67407 L 955.379 111.67407" stroke-width="3.0" /><path d="M 955.379 111.67407 L 955.14246 112.1474 L 955.14246 112.1474 L 955.73413 115.57901 L 957.1542 121.96889 L 958.8109 130.84375 L 958.8109 130.84375 L 960.23096 141.49356 L 961.5327 153.56332 L 962.95276 166.46143 L 962.95276 166.46143 L 964.3728 179.59619 L 965.91125 192.8493 L 967.4496 205.98407 L 967.4496 205.98407 L 968.98804 218.40884 L 970.1714 230.12363 L 971.11816 240.77344 L 971.11816 240.77344 L 971.59143 249.88495 L 971.8281 257.3398 L 972.0648 264.0847 L 972.0648 264.0847 L 972.0648 271.06622 L 971.70984 277.45612 L 970.99976 281.9527 L 970.99976 281.9527" stroke-width="2.5" /><path d="M 970.99976 281.9527 L 969.9347 285.14764 L 967.6863 287.75095 L 965.43787 288.3426 L 965.43787 288.3426" stroke-width="2.0" /><path d="M 965.43787 288.3426 L 962.0061 287.6326 L 957.27246 285.02933 L 951.4739 280.53275 L 951.4739 280.53275" stroke-width="1.5" /><path d="M 951.4739 280.53275 L 945.557 273.9062 L 939.5217 265.74133 L 933.24976 256.98483 L 933.24976 256.98483 L 927.09607 247.75497 L 921.4159 238.88016 L 916.0906 231.42526 L 916.0906 231.42526" stroke-width="2.0" /><path d="M 916.0906 231.42526 L 911.59375 225.27206 L 908.162 220.30215 L 905.79517 216.0422 L 905.79517 216.0422" stroke-width="2.5" /><path d="M 905.79517 216.0422 L 904.6118 212.61063 L 904.1384 209.534 L 904.1384 209.534" stroke-width="3.0" /><path d="M 904.1384 209.534 L 904.9668 208.23236 L 904.9668 208.23236 L 908.51697 205.3924 L 912.6588 203.38077 L 918.2207 201.36914 L 918.2207 201.36914 L 924.7294 199.47586 L 931.948 197.93753 L 939.64 196.51758 L 939.64 196.51758" stroke-width="2.5" /><path d="M 939.64 196.51758 L 947.33203 195.33426" stroke-width="2.0" /><path d="M 947.33203 195.33426 L 947.33203 195.33426" stroke-width="2.0" /></g><g><path d="M 1021.4121 129.1871 L 1021.5304 129.06876 L 1021.5304 129.06876" stroke-width="3.5" /><path d="M 1021.5304 129.06876 L 1021.8854 131.4354 L 1023.18713 137.82529 L 1023.18713 137.82529 L 1024.9623 148.35675 L 1026.3823 160.89987 L 1027.5657 175.21796 L 1027.5657 175.21796 L 1028.6307 191.311 L 1029.4591 207.64069 L 1029.6958 222.66876 L 1029.6958 222.66876 L 1029.9325 237.22351 L 1030.2875 251.65991 L 1030.4058 265.50467 L 1030.4058 265.50467" stroke-width="3.0" /><path d="M 1030.4058 265.50467 L 1030.2875 278.75775 L 1029.6958 290.35422 L 1029.6958 290.35422" stroke-width="2.5" /><path d="M 1029.6958 290.35422 L 1029.6958 290.35422" stroke-width="2.5" /></g><g><path d="M 1067.6825 116.40733 L 1067.5642 115.69734 L 1067.5642 115.69734" stroke-width="4.0" /><path d="M 1067.5642 115.69734 L 1067.3275 116.05234 L 1067.0908 116.17067 L 1067.0908 116.17067" stroke-width="3.5" /><path d="M 1067.0908 116.17067 L 1067.2091 116.525665 L 1067.2091 116.525665 L 1067.5642 117.35397 L 1068.1559 121.14058 L 1068.6293 126.58382 L 1068.6293 126.58382" stroke-width="3.0" /><path d="M 1068.6293 126.58382 L 1068.8658 132.2637 L 1068.5109 138.06195 L 1067.8009 143.97852 L 1067.8009 143.97852 L 1066.8541 150.13171 L 1065.3157 156.16663 L 1063.1857 161.72818 L 1063.1857 161.72818" stroke-width="2.5" /><path d="M 1063.1857 161.72818 L 1060.5822 167.40808 L 1057.1504 173.44296 L 1053.0085 179.12286 L 1053.0085 179.12286 L 1048.2749 184.32944 L 1043.4231 189.18103 L 1043.4231 189.18103 L 1039.0446 193.20428 L 1035.4944 196.39923 L 1035.4944 196.39923" stroke-width="2.0" /><path d="M 1035.4944 196.39923 L 1032.2992 198.76587 L 1032.7726 198.88419 L 1032.7726 198.88419" stroke-width="2.5" /><path d="M 1032.7726 198.88419 L 1036.3228 201.36914 L 1039.0446 203.49911 L 1039.0446 203.49911 L 1041.8846 205.86572 L 1044.9614 208.11401 L 1048.3933 210.12567 L 1048.3933 210.12567 L 1051.7068 212.1373 L 1054.7836 214.14893 L 1057.6238 216.16055 L 1057.6238 216.16055 L 1059.9905 218.40884 L 1061.0555 219.47382 L 1063.7773 223.26044 L 1063.7773 223.26044 L 1065.0791 225.98203 L 1066.1442 228.82199 L 1066.7358 232.01694 L 1066.7358 232.01694 L 1066.8541 235.80353 L 1066.6174 240.06345 L 1065.7891 244.56003 L 1065.7891 244.56003 L 1064.4873 249.52997 L 1062.594 254.38153 L 1060.2272 259.4698 L 1060.2272 259.4698 L 1057.5054 264.79468 L 1054.3102 270.47458 L 1050.5234 276.2728 L 1050.5234 276.2728 L 1046.2632 281.71603 L 1041.5297 286.56763 L 1036.441 290.59088 L 1036.441 290.59088" stroke-width="2.0" /><path d="M 1036.441 290.59088 L 1031.2341 293.43085 L 1031.2341 293.43085" stroke-width="1.5" /><path d="M 1031.2341 293.43085 L 1031.2341 293.43085" stroke-width="1.5" /></g><g><path d="M 1158.5667 103.74588 L 1158.4482 104.5742 L 1158.2117 107.76915 L 1158.2117 107.76915 L 1157.5016 115.224014 L 1155.7266 125.0455 L 1153.478 135.10367 L 1153.478 135.10367 L 1151.1113 145.04349 L 1148.6262 155.6933 L 1145.9044 167.17142 L 1145.9044 167.17142 L 1142.591 179.00455 L 1139.159 191.66599 L 1135.6089 204.2091 L 1135.6089 204.2091" stroke-width="3.0" /><path d="M 1135.6089 204.2091 L 1132.0587 215.33224 L 1128.7452 225.62704 L 1126.0234 234.50189 L 1126.0234 234.50189" stroke-width="2.5" /><path d="M 1126.0234 234.50189 L 1123.775 240.77344 L 1122.2367 244.79669 L 1122.2367 244.79669" stroke-width="2.0" /><path d="M 1122.2367 244.79669 L 1122.2367 244.79669" stroke-width="2.0" /></g><g><path d="M 1164.1285 120.312256 L 1167.5604 113.685715 L 1169.4537 110.254105 L 1169.4537 110.254105" stroke-width="2.5" /><path d="M 1169.4537 110.254105 L 1169.9271 109.662445 L 1170.6372 108.715805 L 1170.6372 108.715805" stroke-width="3.0" /><path d="M 1170.6372 108.715805 L 1170.6372 109.070786 L 1170.6372 109.070786 L 1170.6372 109.662445 L 1170.8739 111.20076 L 1170.8739 111.20076 L 1172.294 115.34235 L 1174.5424 123.5072 L 1176.9092 134.27533 L 1176.9092 134.27533" stroke-width="3.5" /><path d="M 1176.9092 134.27533 L 1178.6842 146.9368 L 1179.8676 160.54486 L 1180.9326 174.50797 L 1180.9326 174.50797 L 1181.9977 189.18103 L 1182.5894 204.44577 L 1183.0627 219.00049 L 1183.0627 219.00049 L 1183.181 232.2536 L 1183.181 244.20505 L 1183.181 254.73654 L 1183.181 254.73654 L 1183.0627 263.7297 L 1182.9445 271.89456 L 1182.7078 278.99442 L 1182.7078 278.99442 L 1182.3527 284.43765 L 1181.8794 288.57925 L 1181.2877 291.53754 L 1181.2877 291.53754" stroke-width="3.0" /><path d="M 1181.2877 291.53754 L 1180.341 293.07584 L 1180.341 293.07584" stroke-width="2.5" /><path d="M 1180.341 293.07584 L 1178.6842 291.53754 L 1176.3174 288.46094 L 1173.0039 283.0177 L 1173.0039 283.0177" stroke-width="2.0" /><path d="M 1173.0039 283.0177 L 1169.6904 274.85284 L 1166.4954 264.67636 L 1163.5369 253.55322 L 1163.5369 253.55322" stroke-width="1.5" /><path d="M 1163.5369 253.55322 L 1161.17 242.19342 L 1159.395 231.89859 L 1157.975 223.61542 L 1157.0282 217.58054 L 1157.0282 217.58054" stroke-width="2.0" /><path d="M 1157.0282 217.58054 L 1156.3182 213.32059 L 1156.3182 213.32059" stroke-width="2.5" /><path d="M 1156.3182 213.32059 L 1155.6082 208.70569 L 1155.8448 207.75903 L 1155.8448 207.75903" stroke-width="3.0" /><path d="M 1155.8448 207.75903 L 1156.5549 207.40405 L 1156.5549 207.40405" stroke-width="3.5" /><path d="M 1156.5549 207.40405 L 1159.5133 205.62906 L 1163.0635 204.09076 L 1168.5071 202.19748 L 1168.5071 202.19748" stroke-width="3.0" /><path d="M 1168.5071 202.19748 L 1175.0157 200.0675 L 1182.4711 197.81921 L 1190.6365 194.97925 L 1190.6365 194.97925" stroke-width="2.5" /><path d="M 1190.6365 194.97925 L 1198.9202 191.7843 L 1207.4406 188.58939" stroke-width="2.0" /><path d="M 1207.4406 188.58939 L 1207.4406 188.58939" stroke-width="2.0" /></g><g><path d="M 1274.0652 131.08041 L 1274.3019 131.19873 L 1274.3019 131.19873 L 1274.1836 131.31705 L 1274.1836 131.31705 L 1274.3019 132.61871 L 1275.367 136.64197 L 1276.9054 144.68848 L 1276.9054 144.68848 L 1278.4437 154.39166 L 1279.3905 164.4498 L 1280.1005 175.09961 L 1280.1005 175.09961 L 1280.9288 186.22275 L 1281.6389 198.41086 L 1281.9939 210.3623 L 1281.9939 210.3623 L 1281.9939 221.84045 L 1281.6389 233.43692 L 1281.1655 244.3234 L 1281.1655 244.3234" stroke-width="3.0" /><path d="M 1281.1655 244.3234 L 1280.5739 254.14487 L 1279.5088 263.13803 L 1278.4437 271.18457 L 1278.4437 271.18457" stroke-width="2.5" /><path d="M 1278.4437 271.18457 L 1277.4971 277.3378 L 1276.6687 281.59772" stroke-width="2.0" /><path d="M 1276.6687 281.59772 L 1276.6687 281.59772" stroke-width="2.0" /></g><g><path d="M 1301.5198 103.154236 L 1301.5198 103.154236 L 1301.6382 103.035904 L 1301.6382 103.035904 L 1301.6382 103.154236 L 1301.6382 103.154236 L 1301.8748 103.62755 L 1306.845 107.65082 L 1306.845 107.65082" stroke-width="3.0" /><path d="M 1306.845 107.65082 L 1310.6318 111.31909 L 1313.7086 114.98735 L 1316.1938 119.3656 L 1316.1938 119.3656 L 1318.4423 124.21719 L 1320.2173 128.71378 L 1321.4006 133.21036 L 1321.4006 133.21036 L 1321.9924 137.58862 L 1321.874 142.0852 L 1321.0457 146.70013 L 1321.0457 146.70013 L 1319.5073 151.31503 L 1317.0222 155.57495 L 1313.5903 159.71655 L 1313.5903 159.71655" stroke-width="2.5" /><path d="M 1313.5903 159.71655 L 1309.2118 163.62149 L 1304.2416 167.28976 L 1299.508 170.36636 L 1299.508 170.36636 L 1295.0111 172.733 L 1291.4609 174.03464 L 1291.4609 174.03464 L 1289.0942 175.21796 L 1289.6859 174.9813 L 1289.6859 174.9813" stroke-width="3.0" /><path d="M 1289.6859 174.9813 L 1293.1178 175.92792 L 1298.443 177.82123 L 1298.443 177.82123 L 1305.3066 179.9512 L 1313.2354 181.4895 L 1321.519 183.0278 L 1321.519 183.0278 L 1329.8027 184.32944 L 1338.0864 185.39444 L 1345.7784 186.81439 L 1345.7784 186.81439 L 1352.2871 188.23438 L 1357.7307 190.00934 L 1361.8726 192.02097 L 1361.8726 192.02097 L 1364.831 194.26929 L 1366.7244 196.75424 L 1367.6711 199.35751 L 1367.6711 199.35751" stroke-width="2.5" /><path d="M 1367.6711 199.35751 L 1367.7894 202.3158 L 1366.7244 205.98407 L 1364.3577 210.83563 L 1364.3577 210.83563 L 1360.3341 216.7522 L 1354.5355 223.73373 L 1347.4352 231.42526 L 1347.4352 231.42526 L 1338.7965 239.23514 L 1329.0927 247.04501 L 1318.679 254.49988 L 1318.679 254.49988" stroke-width="2.0" /><path d="M 1318.679 254.49988 L 1307.7917 261.36307 L 1296.6678 267.98962 L 1286.3724 273.9062 L 1286.3724 273.9062" stroke-width="1.5" /><path d="M 1286.3724 273.9062 L 1278.207 277.69278 L 1272.7634 278.99442 L 1272.7634 278.99442" stroke-width="1.5" /></g><g><path d="M 1448.1415 107.65082 L 1448.1415 107.532486 L 1448.1415 107.532486 L 1447.5498 108.124146 L 1446.7214 108.24248 L 1446.7214 108.24248 L 1443.6445 111.08243 L 1439.266 116.17067 L 1439.266 116.17067" stroke-width="3.5" /><path d="M 1439.266 116.17067 L 1433.3491 124.09886 L 1426.4855 134.39368 L 1418.4385 147.05511 L 1418.4385 147.05511 L 1409.9181 161.84653 L 1401.9894 177.46625 L 1395.7174 193.20428 L 1395.7174 193.20428 L 1391.3389 207.64069 L 1389.4454 219.94714 L 1390.1555 230.59695 L 1390.1555 230.59695" stroke-width="3.0" /><path d="M 1390.1555 230.59695 L 1393.9423 239.59012 L 1400.8059 247.51831 L 1410.983 253.67154 L 1410.983 253.67154 L 1424.0004 257.10315 L 1438.7927 257.45816 L 1454.65 255.20984" stroke-width="2.5" /><path d="M 1454.65 255.20984 L 1454.65 255.20984" stroke-width="2.5" /></g><g><path d="M 397.29376 573.16583 L 397.05707 573.63916 L 397.05707 573.63916 L 396.93872 575.76917 L 396.82037 580.26575 L 396.93872 586.8923 L 396.93872 586.8923" stroke-width="3.5" /><path d="M 396.93872 586.8923 L 397.64874 595.4121 L 398.9505 605.5886 L 400.37054 617.0667 L 400.37054 617.0667 L 401.90894 628.78156 L 403.4474 640.25964 L 405.22247 651.5011 L 405.22247 651.5011 L 407.35254 661.79596 L 409.60095 671.38074 L 411.73108 680.2556 L 411.73108 680.2556" stroke-width="3.0" /><path d="M 411.73108 680.2556 L 413.6245 686.76385 L 415.1629 690.66876 L 415.1629 690.66876" stroke-width="2.5" /><path d="M 415.1629 690.66876 L 415.1629 690.66876" stroke-width="2.5" /></g><g><path d="M 431.49365 645.22955 L 435.04382 633.1598 L 440.36902 616.12006 L 445.33923 601.2103 L 445.33923 601.2103 L 450.78284 586.65564 L 456.46307 573.16583 L 461.90668 561.3327 L 461.90668 561.3327" stroke-width="2.0" /><path d="M 461.90668 561.3327 L 466.75854 552.1029 L 471.01874 544.8847 L 474.5689 539.79645 L 474.5689 539.79645" stroke-width="2.5" /><path d="M 474.5689 539.79645 L 477.2907 536.83813 L 479.42084 535.5365 L 479.42084 535.5365 L 482.0243 535.4182 L 485.8111 537.7848 L 485.8111 537.7848" stroke-width="3.0" /><path d="M 485.8111 537.7848 L 488.41455 540.5064 L 491.49133 545.12134 L 495.39655 551.8662 L 495.39655 551.8662 L 499.42004 560.1494 L 502.9702 568.7876 L 506.16534 577.78076 L 506.16534 577.78076" stroke-width="3.5" /><path d="M 506.16534 577.78076 L 509.36047 586.7739 L 512.2006 595.4121 L 514.8041 604.16864 L 514.8041 604.16864 L 517.17084 612.5701 L 519.0643 619.9067 L 520.366 626.05994 L 520.366 626.05994" stroke-width="3.0" /><path d="M 520.366 626.05994 L 521.1944 631.85815 L 521.3127 637.18304 L 520.721 642.2713 L 520.721 642.2713" stroke-width="2.5" /><path d="M 520.721 642.2713 L 519.0643 647.12286 L 515.9875 650.9095" stroke-width="2.0" /><path d="M 515.9875 650.9095 L 515.9875 650.9095" stroke-width="2.0" /></g><g><path d="M 486.63947 652.80273 L 481.07758 650.6728 L 481.07758 650.6728" stroke-width="2.0" /><path d="M 481.07758 650.6728 L 473.6222 647.2412 L 467.8236 643.33624 L 462.97174 639.07635 L 462.97174 639.07635" stroke-width="2.5" /><path d="M 462.97174 639.07635 L 459.65826 635.8814 L 457.52814 630.9115 L 457.52814 630.9115" stroke-width="3.0" /><path d="M 457.52814 630.9115 L 458.5932 628.78156 L 458.5932 628.78156" stroke-width="3.5" /><path d="M 458.5932 628.78156 L 462.02502 627.47986 L 466.99524 626.1782 L 474.8056 624.2849 L 474.8056 624.2849 L 484.98273 622.0366 L 496.69824 619.5517 L 508.88715 617.3034 L 508.88715 617.3034 L 520.4843 614.93677 L 531.3715 612.3335 L 541.54865 609.96686 L 541.54865 609.96686" stroke-width="3.0" /><path d="M 541.54865 609.96686 L 550.6607 607.8369" stroke-width="2.5" /><path d="M 550.6607 607.8369 L 550.6607 607.8369" stroke-width="2.5" /></g><g><path d="M 571.37 560.26776 L 571.6067 560.26776 L 571.6067 560.26776 L 571.8433 560.7411 L 574.3284 563.226 L 574.3284 563.226" stroke-width="3.5" /><path d="M 574.3284 563.226 L 577.6419 566.65765 L 580.71875 570.91754 L 583.44055 575.6508 L 583.44055 575.6508 L 585.92566 580.7391 L 588.5291 586.06396 L 591.13257 592.3355 L 591.13257 592.3355 L 593.736 599.9087 L 596.2211 607.9552 L 598.1145 615.6468 L 598.1145 615.6468" stroke-width="3.0" /><path d="M 598.1145 615.6468 L 599.41626 622.50995 L 600.00793 628.3082" stroke-width="2.5" /><path d="M 600.00793 628.3082 L 600.00793 628.3082" stroke-width="2.5" /></g><g><path d="M 601.5463 521.21844 L 604.1498 519.32513 L 607.8183 516.72186 L 611.96014 514.1186 L 611.96014 514.1186 L 615.5103 512.10693 L 617.8771 510.92365 L 617.8771 510.92365 L 619.5338 510.5686 L 619.65216 511.16028 L 619.65216 511.16028 L 621.5456 513.76355 L 622.37396 515.06525 L 623.6757 518.14185 L 623.6757 518.14185" stroke-width="3.0" /><path d="M 623.6757 518.14185 L 624.7407 522.7568 L 625.2141 528.7916 L 625.33246 535.0632 L 625.33246 535.0632 L 624.7407 541.8081 L 623.439 549.6179 L 621.66394 557.6645 L 621.66394 557.6645" stroke-width="2.5" /><path d="M 621.66394 557.6645 L 619.7705 565.356 L 617.7587 572.9292 L 616.102 579.20074 L 616.102 579.20074 L 615.1553 583.4607 L 615.1553 583.4607 L 616.3387 587.48395 L 619.7705 590.0872 L 623.91235 592.6905 L 623.91235 592.6905" stroke-width="2.0" /><path d="M 623.91235 592.6905 L 629.0009 594.82043 L 634.4445 596.35876 L 640.12476 597.77875 L 640.12476 597.77875" stroke-width="2.5" /><path d="M 640.12476 597.77875 L 645.56836 598.84375 L 650.6569 599.9087 L 655.1538 601.2103 L 655.1538 601.2103 L 658.9406 602.512 L 661.78076 604.16864 L 665.09424 607.0086 L 665.09424 607.0086 L 667.461 610.55853 L 667.9344 613.04346 L 667.9344 613.04346 L 668.05273 616.71173 L 667.34265 622.39166 L 665.6859 629.13654 L 665.6859 629.13654" stroke-width="3.0" /><path d="M 665.6859 629.13654 L 663.31915 636.35474 L 660.2424 644.1646 L 656.2188 652.5661 L 656.2188 652.5661" stroke-width="2.5" /><path d="M 656.2188 652.5661 L 651.60364 660.4943 L 646.87006 667.4758 L 642.0182 673.3924 L 642.0182 673.3924" stroke-width="2.0" /><path d="M 642.0182 673.3924 L 637.40295 677.2973 L 633.37946 678.7173 L 633.37946 678.7173" stroke-width="1.5" /><path d="M 633.37946 678.7173 L 633.37946 678.7173" stroke-width="1.5" /></g><g><path d="M 749.7064 484.29907 L 749.7064 484.53577 L 749.7064 484.53577 L 749.3514 484.89075 L 748.40466 488.44067 L 748.40466 488.44067 L 746.6296 494.00226 L 744.2628 501.22046 L 741.541 509.03033 L 741.541 509.03033" stroke-width="3.5" /><path d="M 741.541 509.03033 L 738.3459 517.07684 L 734.91406 525.8334 L 731.0089 535.1815 L 731.0089 535.1815 L 726.98535 545.003 L 723.0802 555.5345 L 719.4117 565.94763 L 719.4117 565.94763 L 715.8615 576.71576 L 712.6664 587.48395 L 710.1813 596.8321 L 710.1813 596.8321 L 708.6429 604.99695 L 708.28784 611.15015 L 708.8796 615.17346 L 708.8796 615.17346 L 710.77295 618.7234 L 714.0865 622.39166 L 718.70166 625.23157 L 718.70166 625.23157 L 724.97363 627.71655 L 732.3106 629.13654 L 739.5293 628.89984 L 739.5293 628.89984" stroke-width="3.0" /><path d="M 739.5293 628.89984 L 746.7479 627.3616 L 754.5583 624.5216 L 754.5583 624.5216 L 762.13196 620.1434 L 769.11395 615.17346 L 775.3859 610.32184 L 781.1845 605.4703 L 781.1845 605.4703 L 786.6281 600.9737 L 791.48 596.71375 L 795.5035 592.80884 L 795.5035 592.80884 L 798.3436 589.8505 L 801.8938 586.5373 L 801.8938 586.5373 L 802.6038 585.8273 L 802.6038 585.8273 L 802.2488 585.8273 L 801.77545 585.709 L 801.77545 585.709" stroke-width="3.5" /><path d="M 801.77545 585.709 L 800.35535 585.23566 L 800.35535 585.23566 L 797.0419 583.934 L 793.9651 582.7507 L 790.4149 581.5674 L 790.4149 581.5674" stroke-width="3.0" /><path d="M 790.4149 581.5674 L 786.3914 580.1474 L 781.7762 578.4908 L 776.6876 576.3608 L 776.6876 576.3608" stroke-width="2.5" /><path d="M 776.6876 576.3608 L 771.7174 573.7575 L 767.4572 570.79926 L 764.14374 567.84094" stroke-width="2.0" /><path d="M 764.14374 567.84094 L 764.14374 567.84094" stroke-width="2.0" /></g><g><path d="M 914.43384 544.76636 L 914.55225 545.12134 L 914.55225 545.12134 L 916.0906 549.1446 L 917.03735 552.9312 L 917.03735 552.9312 L 917.629 556.3628 L 917.984 559.55774 L 918.2207 562.6344 L 918.2207 562.6344 L 918.6941 565.8293 L 919.0491 569.2609 L 919.64075 573.2842 L 919.64075 573.2842 L 920.3508 577.1891 L 921.4159 580.5024 L 923.07263 583.579 L 923.07263 583.579 L 926.0311 584.99896 L 927.2145 585.1173 L 927.2145 585.1173" stroke-width="3.0" /><path d="M 927.2145 585.1173 L 930.40967 584.99896 L 934.1964 584.4073 L 938.22 583.4607 L 938.22 583.4607" stroke-width="2.5" /><path d="M 938.22 583.4607 L 942.1251 582.27734 L 945.6753 581.44904 L 948.7521 581.09406 L 948.7521 581.09406 L 951.2372 581.5674 L 956.4441 584.4073 L 956.4441 584.4073" stroke-width="3.0" /><path d="M 956.4441 584.4073 L 957.50916 585.59064 L 959.75757 588.7856 L 961.8877 593.5188 L 961.8877 593.5188 L 963.54443 599.43536 L 964.7278 605.82526 L 965.3196 612.5701 L 965.3196 612.5701" stroke-width="3.5" /><path d="M 965.3196 612.5701 L 965.55615 619.315 L 965.67456 626.05994 L 965.43787 632.8048 L 965.3196 639.5497 L 965.3196 639.5497 L 965.3196 645.9396 L 965.91125 651.3828 L 965.91125 651.3828 L 967.4496 655.6427 L 970.0531 658.83765 L 974.5499 661.2043 L 974.5499 661.2043" stroke-width="3.0" /><path d="M 974.5499 661.2043 L 981.1769 662.3876 L 990.17065 661.79596 L 1000.93945 658.601 L 1000.93945 658.601 L 1012.8917 652.9211 L 1025.554 644.9929 L 1038.6896 635.1714 L 1038.6896 635.1714" stroke-width="2.5" /><path d="M 1038.6896 635.1714 L 1051.8251 624.2849 L 1064.2507 611.86017 L 1075.8479 598.84375 L 1086.1433 585.709 L 1086.1433 585.709" stroke-width="2.0" /><path d="M 1086.1433 585.709 L 1095.1371 572.3375 L 1102.7108 559.9128 L 1108.9827 549.26294 L 1108.9827 549.26294 L 1114.0713 540.2698 L 1117.6215 533.5249 L 1119.6332 528.3183 L 1119.6332 528.3183" stroke-width="2.5" /><path d="M 1119.6332 528.3183 L 1120.4615 524.7684 L 1120.4615 524.7684 L 1119.9882 522.04675 L 1117.7397 520.6268 L 1117.7397 520.6268" stroke-width="3.0" /><path d="M 1117.7397 520.6268 L 1113.5979 519.9168 L 1110.8761 520.15344 L 1108.1543 520.86346 L 1108.1543 520.86346 L 1105.3142 521.6918 L 1102.5924 522.9934 L 1100.1073 524.53174 L 1100.1073 524.53174 L 1096.9121 527.25336 L 1095.9655 528.43665 L 1095.9655 528.43665" stroke-width="2.5" /><path d="M 1095.9655 528.43665 L 1093.5986 531.9866 L 1092.297 534.3532 L 1090.7585 537.0748 L 1090.7585 537.0748" stroke-width="2.0" /><path d="M 1090.7585 537.0748 L 1089.1018 540.0331 L 1086.9717 543.4647" stroke-width="1.5" /><path d="M 1086.9717 543.4647 L 1086.9717 543.4647" stroke-width="1.5" /></g><g><path d="M 1193.1216 492.46393 L 1193.0032 492.70062 L 1193.0032 492.70062 L 1192.6482 493.2923 L 1192.6482 493.2923 L 1192.5298 498.3805 L 1192.4115 503.5871 L 1192.2932 510.45032 L 1192.2932 510.45032 L 1192.0565 518.4968 L 1192.0565 528.2 L 1192.1748 538.2581 L 1192.1748 538.2581 L 1192.6482 548.07965 L 1193.4766 558.2561 L 1194.6599 568.5509 L 1194.6599 568.5509 L 1196.3167 578.96405 L 1198.2101 588.4306 L 1200.2218 596.35876 L 1200.2218 596.35876" stroke-width="3.0" /><path d="M 1200.2218 596.35876 L 1202.1152 602.867 L 1204.2454 607.24524 L 1206.7305 609.96686 L 1206.7305 609.96686" stroke-width="2.5" /><path d="M 1206.7305 609.96686 L 1209.9257 611.2685 L 1214.3042 610.55853 L 1220.2211 607.24524 L 1220.2211 607.24524" stroke-width="2.0" /><path d="M 1220.2211 607.24524 L 1227.2031 600.737 L 1235.2501 591.8622 L 1244.4806 580.85736 L 1244.4806 580.85736" stroke-width="1.5" /><path d="M 1244.4806 580.85736 L 1254.421 568.3143 L 1265.3081 554.46954 L 1276.6687 539.44147 L 1276.6687 539.44147" stroke-width="1.0" /><path d="M 1276.6687 539.44147 L 1287.6742 524.7684 L 1298.2063 511.27863 L 1307.91 499.0905 L 1307.91 499.0905" stroke-width="1.5" /><path d="M 1307.91 499.0905 L 1316.3121 489.86066 L 1322.8208 484.1808 L 1327.0809 481.34082 L 1327.0809 481.34082" stroke-width="2.0" /><path d="M 1327.0809 481.34082 L 1329.6844 480.5125 L 1329.921 481.34082 L 1329.921 481.34082" stroke-width="2.5" /><path d="M 1329.921 481.34082 L 1330.2761 484.29907 L 1330.6311 489.7423 L 1330.6311 489.7423" stroke-width="3.0" /><path d="M 1330.6311 489.7423 L 1330.6311 498.14386 L 1329.8027 508.3203 L 1327.9093 519.32513 L 1327.9093 519.32513" stroke-width="3.5" /><path d="M 1327.9093 519.32513 L 1325.3059 530.92163 L 1322.1107 542.6364 L 1318.2056 554.3512 L 1318.2056 554.3512 L 1314.3004 566.3026 L 1310.5135 578.01746 L 1307.2001 589.37726 L 1307.2001 589.37726 L 1304.3599 600.02704 L 1302.2299 609.7302 L 1300.8098 618.25006 L 1300.8098 618.25006" stroke-width="3.0" /><path d="M 1300.8098 618.25006 L 1299.9814 624.5216 L 1299.863 628.6632 L 1300.4547 630.9115 L 1300.4547 630.9115" stroke-width="2.5" /><path d="M 1300.4547 630.9115 L 1303.4132 629.13654 L 1303.4132 629.13654" stroke-width="2.0" /><path d="M 1303.4132 629.13654 L 1303.4132 629.13654" stroke-width="2.0" /></g><g><path d="M 1378.3217 472.2293 L 1381.8718 470.69104 L 1382.7002 470.5727 L 1382.7002 470.5727" stroke-width="2.5" /><path d="M 1382.7002 470.5727 L 1382.8185 471.04602 L 1382.8185 471.04602" stroke-width="3.0" /><path d="M 1382.8185 471.04602 L 1382.5818 471.75598 L 1382.8185 473.6493 L 1382.8185 473.6493" stroke-width="3.5" /><path d="M 1382.8185 473.6493 L 1383.6469 477.31757 L 1384.5935 483.35248 L 1385.6586 490.68896 L 1385.6586 490.68896 L 1386.6053 498.97217 L 1387.552 507.492 L 1388.3804 515.89355 L 1388.3804 515.89355 L 1389.0905 524.53174 L 1389.6821 533.5249 L 1390.0371 541.9264 L 1390.0371 541.9264 L 1389.9188 549.49963 L 1389.0905 557.19116 L 1387.6704 564.8827 L 1387.6704 564.8827" stroke-width="3.0" /><path d="M 1387.6704 564.8827 L 1384.9486 572.4559 L 1380.8068 580.02905 L 1374.6531 587.60223 L 1374.6531 587.60223" stroke-width="2.5" /><path d="M 1374.6531 587.60223 L 1366.2511 595.0571 L 1355.1272 601.92035" stroke-width="2.0" /><path d="M 1355.1272 601.92035 L 1355.1272 601.92035" stroke-width="2.0" /></g><g><path d="M 683.3184 907.8065 L 683.2001 907.21484 L 683.9101 906.85986 L 683.9101 906.85986 L 689.59033 904.96655 L 696.6907 902.6 L 696.6907 902.6" stroke-width="3.5" /><path d="M 696.6907 902.6 L 705.0927 899.5233 L 714.0865 895.97345 L 723.7902 891.7135 L 723.7902 891.7135 L 734.20404 887.33527 L 744.4995 882.957 L 755.0317 878.3421 L 755.0317 878.3421 L 765.6821 873.9638 L 776.09595 870.29553 L 786.2731 867.4556 L 786.2731 867.4556 L 795.97687 865.5623 L 805.444 864.2607 L 814.556 864.024 L 814.556 864.024 L 822.603 864.8523 L 829.585 866.509 L 835.97534 868.75726 L 835.97534 868.75726 L 842.0106 871.7155 L 847.45416 875.50214 L 851.95105 879.8804 L 851.95105 879.8804 L 855.97455 884.8503 L 859.87976 890.0569 L 863.0749 895.5001 L 863.0749 895.5001 L 865.7967 901.53503 L 867.92676 908.2799 L 867.92676 908.2799 L 869.70184 915.2615 L 871.24023 922.12463 L 872.542 928.7512 L 873.8437 934.6677 L 873.8437 934.6677 L 875.38214 939.9927 L 877.15717 944.1343 L 878.93225 946.73755 L 878.93225 946.73755 L 882.2458 948.2759 L 886.15094 947.3292 L 886.15094 947.3292" stroke-width="3.0" /><path d="M 886.15094 947.3292 L 891.35785 944.48926 L 896.8014 938.9276 L 902.7184 929.81616 L 902.7184 929.81616" stroke-width="2.5" /><path d="M 902.7184 929.81616 L 908.2803 917.15466 L 913.7239 901.89 L 918.8124 883.9036" stroke-width="2.0" /><path d="M 918.8124 883.9036 L 918.8124 883.9036" stroke-width="2.0" /></g><g><path d="M 972.8932 761.9042 L 972.3015 767.82074 L 971.70984 772.6723 L 971.70984 772.6723" stroke-width="4.0" /><path d="M 971.70984 772.6723 L 971.23645 777.76056 L 970.8815 781.66547 L 970.99976 784.3871 L 970.99976 784.3871 L 971.47314 786.99036 L 972.1832 789.94867 L 973.24817 793.2619 L 973.24817 793.2619 L 975.0233 797.87683 L 978.1001 804.3851 L 982.5969 812.19495 L 982.5969 812.19495 L 987.68555 820.24146 L 992.77405 827.933 L 997.3893 834.4412 L 997.3893 834.4412" stroke-width="3.5" /><path d="M 997.3893 834.4412 L 1002.1229 840.3577 L 1007.4481 845.32764 L 1012.655 849.5876 L 1012.655 849.5876" stroke-width="3.0" /><path d="M 1012.655 849.5876 L 1017.9802 853.25586 L 1023.8972 855.6225 L 1030.2875 856.4508 L 1030.2875 856.4508" stroke-width="2.5" /><path d="M 1030.2875 856.4508 L 1037.9795 855.7408" stroke-width="2.0" /><path d="M 1037.9795 855.7408 L 1037.9795 855.7408" stroke-width="2.0" /></g><g><path d="M 1178.9209 780.2455 L 1189.8081 780.60046 L 1189.8081 780.60046" stroke-width="2.5" /><path d="M 1189.8081 780.60046 L 1198.6835 781.42883 L 1205.5471 783.08545 L 1211.5824 784.97876 L 1211.5824 784.97876" stroke-width="3.0" /><path d="M 1211.5824 784.97876 L 1216.7893 787.1087 L 1221.2861 789.8303 L 1225.073 793.02527 L 1225.073 793.02527" stroke-width="3.5" /><path d="M 1225.073 793.02527 L 1228.5048 796.9302 L 1231.9366 802.2551 L 1235.1317 808.64496 L 1235.1317 808.64496 L 1238.2086 815.7449 L 1241.167 823.9097 L 1244.2439 833.02124 L 1244.2439 833.02124 L 1247.439 842.13275 L 1250.6342 851.00757 L 1254.3026 860.1191 L 1254.3026 860.1191 L 1258.5629 868.9939 L 1263.4147 877.8688 L 1268.5033 886.27026 L 1273.7102 893.72516 L 1273.7102 893.72516" stroke-width="3.0" /><path d="M 1273.7102 893.72516 L 1279.0354 900.47 L 1284.479 906.85986 L 1284.479 906.85986 L 1290.0409 912.7765 L 1295.3662 917.86475 L 1300.0997 922.3613 L 1304.3599 926.7395 L 1304.3599 926.7395" stroke-width="2.5" /><path d="M 1304.3599 926.7395 L 1308.1467 930.17114 L 1311.3419 932.7744 L 1313.5903 934.786 L 1313.5903 934.786" stroke-width="2.0" /><path d="M 1313.5903 934.786 L 1315.0104 936.32434" stroke-width="1.5" /><path d="M 1315.0104 936.32434 L 1315.0104 936.32434" stroke-width="1.5" /></g><g><path d="M 507.11206 959.6356 L 505.33698 960.464 L 500.2484 962.7123 L 495.5149 963.65894 L 495.5149 963.65894" stroke-width="3.0" /><path d="M 495.5149 963.65894 L 489.71625 963.30396 L 482.49762 961.52893 L 475.51562 958.0973 L 475.51562 958.0973" stroke-width="2.5" /><path d="M 475.51562 958.0973 L 470.5454 953.7191 L 467.5869 949.22253 L 465.5752 944.84424 L 465.5752 944.84424" stroke-width="2.0" /><path d="M 465.5752 944.84424 L 464.27344 940.58435 L 463.91846 936.6793 L 463.91846 936.6793 L 464.1551 932.5377 L 465.22015 927.92285 L 467.1136 922.7163 L 469.71704 917.15466 L 469.71704 917.15466 L 473.2672 911.47485 L 477.5274 905.7949 L 482.49762 899.9967 L 482.49762 899.9967 L 487.94122 894.3168 L 493.7398 888.87354 L 499.7751 883.54865 L 499.7751 883.54865 L 506.2837 878.3421 L 512.674 873.7272 L 518.4726 869.8222 L 518.4726 869.8222 L 523.91614 866.86395 L 528.76807 865.3256 L 533.02826 864.37897 L 533.02826 864.37897 L 536.5784 863.90564 L 539.4185 864.734 L 539.4185 864.734" stroke-width="1.5" /><path d="M 539.4185 864.734 L 543.08704 868.75726 L 544.03375 872.6622 L 544.5071 877.6321 L 544.5071 877.6321 L 544.27045 883.667 L 543.6787 890.2935 L 542.49536 897.39343 L 542.49536 897.39343" stroke-width="2.0" /><path d="M 542.49536 897.39343 L 540.6019 904.96655 L 538.1168 912.8948 L 535.395 920.7047 L 535.395 920.7047 L 532.4365 928.39624 L 529.35974 936.20605 L 526.04626 943.4242 L 526.04626 943.4242 L 523.08777 949.6958 L 520.12933 955.849 L 517.6442 960.93726 L 517.6442 960.93726 L 515.63245 964.0139 L 513.85736 965.9072 L 513.85736 965.9072 L 513.739 964.3689 L 514.33075 962.1206 L 514.33075 962.1206" stroke-width="1.5" /><path d="M 514.33075 962.1206 L 515.7508 957.26904 L 518.11755 950.0508 L 521.3127 941.7676 L 521.3127 941.7676 L 525.33624 932.41943 L 530.06976 922.5979 L 535.395 912.6581 L 535.395 912.6581 L 540.9569 902.4817 L 546.8739 893.01514 L 553.02747 884.25867 L 553.02747 884.25867 L 559.4178 876.8038 L 565.45306 871.36053 L 571.48834 867.69226 L 571.48834 867.69226" stroke-width="2.0" /><path d="M 571.48834 867.69226 L 577.2869 865.089 L 583.0855 864.024 L 588.1741 864.024 L 588.1741 864.024 L 592.5526 864.734 L 597.0495 866.62726 L 601.5463 869.5856 L 601.5463 869.5856" stroke-width="2.5" /><path d="M 601.5463 869.5856 L 606.16156 873.7272 L 611.0134 879.1704 L 615.747 885.44196 L 615.747 885.44196 L 620.4805 891.83185 L 625.45074 898.69507 L 630.776 906.0316 L 630.776 906.0316 L 636.10126 913.1315 L 641.66315 919.87634 L 647.58014 926.14795 L 647.58014 926.14795" stroke-width="2.0" /><path d="M 647.58014 926.14795 L 653.7337 931.82776 L 660.479 936.44275 L 667.57935 940.22925 L 667.57935 940.22925" stroke-width="1.5" /><path d="M 667.57935 940.22925 L 674.79803 942.59595 L 674.79803 942.59595 L 674.79803 942.59595" stroke-width="1.5" /></g><g><path d="M 807.6924 776.69556 L 807.6924 776.8139 L 807.6924 776.8139 L 808.52075 779.5355 L 809.70416 784.8604 L 809.70416 784.8604 L 810.6508 791.96027 L 811.7159 799.8885 L 812.78094 808.5267 L 812.78094 808.5267" stroke-width="3.0" /><path d="M 812.78094 808.5267 L 813.96436 817.6382 L 815.50275 826.9863 L 817.3962 836.6895 L 817.3962 836.6895 L 819.76294 846.9843 L 822.24805 857.2791 L 824.96985 866.7456 L 824.96985 866.7456 L 828.04663 875.7388 L 831.9518 884.61365 L 836.3303 892.7785 L 836.3303 892.7785" stroke-width="2.5" /><path d="M 836.3303 892.7785 L 841.18225 899.9967 L 845.7974 906.0316 L 850.2943 910.7649 L 850.2943 910.7649" stroke-width="2.0" /><path d="M 850.2943 910.7649 L 855.02783 914.3148" stroke-width="1.5" /><path d="M 855.02783 914.3148 L 855.02783 914.3148" stroke-width="1.5" /></g><g><path d="M 888.9911 813.02325 L 888.9911 812.78656 L 889.7011 814.5615 L 889.7011 814.5615" stroke-width="3.5" /><path d="M 889.7011 814.5615 L 891.0028 818.1115 L 892.89624 822.9631 L 894.908 828.64294 L 894.908 828.64294 L 897.5115 835.1512 L 900.58826 842.48773 L 903.90173 850.8892 L 903.90173 850.8892 L 907.3336 860.1191 L 911.0021 869.7039 L 915.1439 879.1704 L 915.1439 879.1704 L 919.40405 888.1636 L 923.546 896.9201 L 927.92444 905.32166 L 927.92444 905.32166" stroke-width="3.0" /><path d="M 927.92444 905.32166 L 932.4214 912.7765 L 936.6815 918.8114 L 936.6815 918.8114" stroke-width="2.5" /><path d="M 936.6815 918.8114 L 936.6815 918.8114" stroke-width="2.5" /></g><g><path d="M 1074.6646 767.3474 L 1074.4279 767.58405 L 1074.4279 767.58405 L 1073.8362 772.0806 L 1073.0077 778.2339 L 1071.706 785.5704 L 1071.706 785.5704 L 1070.5226 793.38025 L 1069.8126 800.83514 L 1069.4576 808.5267 L 1069.4576 808.5267 L 1069.5759 816.3365 L 1070.5226 824.38306 L 1072.1793 832.3112 L 1072.1793 832.3112 L 1074.5461 839.41113 L 1077.8596 845.20935 L 1082.4749 849.8243 L 1082.4749 849.8243" stroke-width="3.0" /><path d="M 1082.4749 849.8243 L 1088.0367 852.6642 L 1094.5454 853.61084 L 1101.6458 851.8359 L 1101.6458 851.8359" stroke-width="2.5" /><path d="M 1101.6458 851.8359 L 1109.456 847.6943 L 1109.456 847.6943" stroke-width="2.0" /><path d="M 1109.456 847.6943 L 1109.456 847.6943" stroke-width="2.0" /></g><g><path d="M 1226.493 691.9704 L 1227.7948 695.8753 L 1228.0315 698.5969 L 1227.7948 702.2652 L 1227.7948 702.2652 L 1226.848 706.6435 L 1225.3097 712.205 L 1223.4163 718.2399 L 1223.4163 718.2399 L 1221.0494 724.74817 L 1218.2094 732.08466 L 1215.0142 739.6579 L 1215.0142 739.6579 L 1211.7007 747.2311 L 1208.5056 754.80426 L 1205.5471 761.9042 L 1205.5471 761.9042" stroke-width="3.0" /><path d="M 1205.5471 761.9042 L 1203.2987 767.939 L 1201.8785 772.55396 L 1201.8785 772.55396" stroke-width="2.5" /><path d="M 1201.8785 772.55396 L 1201.7603 776.1039 L 1204.482 774.5656 L 1204.482 774.5656" stroke-width="2.0" /><path d="M 1204.482 774.5656 L 1209.5706 771.72565 L 1216.3159 766.51904 L 1224.0079 759.4192 L 1224.0079 759.4192" stroke-width="1.5" /><path d="M 1224.0079 759.4192 L 1232.2916 751.491 L 1241.6404 743.5628 L 1251.1075 736.22626 L 1251.1075 736.22626 L 1260.9296 729.24475 L 1270.515 723.0915 L 1279.3905 718.5949 L 1287.5558 715.63666 L 1287.5558 715.63666 L 1295.0111 713.98 L 1301.0464 713.74335 L 1306.0166 714.2167 L 1306.0166 714.2167" stroke-width="2.0" /><path d="M 1306.0166 714.2167 L 1310.7502 715.045 L 1314.7737 716.3466 L 1318.4423 717.88495 L 1318.4423 717.88495" stroke-width="2.5" /><path d="M 1318.4423 717.88495 L 1321.6373 720.0149 L 1324.5958 722.61816 L 1327.1993 726.0498 L 1327.1993 726.0498" stroke-width="3.0" /><path d="M 1327.1993 726.0498 L 1329.921 730.42804 L 1332.5245 735.7529 L 1334.8914 741.78784 L 1334.8914 741.78784" stroke-width="3.5" /><path d="M 1334.8914 741.78784 L 1336.9031 748.7694 L 1338.3231 756.6976 L 1339.1515 765.2174 L 1339.1515 765.2174 L 1338.9148 774.44727 L 1337.7314 784.50543 L 1337.7314 784.50543 L 1335.483 794.3269 L 1332.1696 804.2667 L 1327.6726 814.3249 L 1321.6373 824.028 L 1321.6373 824.028" stroke-width="3.0" /><path d="M 1321.6373 824.028 L 1313.827 833.61285 L 1304.1233 842.96106 L 1292.6444 851.59924 L 1292.6444 851.59924" stroke-width="2.5" /><path d="M 1292.6444 851.59924 L 1279.2721 859.5274 L 1263.8881 866.509 L 1246.6106 872.18884 L 1246.6106 872.18884" stroke-width="2.0" /><path d="M 1246.6106 872.18884 L 1246.6106 872.18884" stroke-width="2.0" /></g><g><path d="M 321.3203 859.64575 L 320.96527 858.4624 L 321.08362 856.0958 L 321.79367 851.2442 L 321.79367 851.2442" stroke-width="3.0" /><path d="M 321.79367 851.2442 L 323.33206 843.78937 L 325.69882 834.4412 L 328.89398 825.093 L 328.89398 825.093" stroke-width="2.5" /><path d="M 328.89398 825.093 L 332.56247 816.8098 L 336.46765 810.1833 L 340.72784 804.3851 L 340.72784 804.3851" stroke-width="2.0" /><path d="M 340.72784 804.3851 L 345.8164 798.4685 L 351.37833 792.6703 L 356.70358 787.34534 L 356.70358 787.34534 L 361.55545 782.6121 L 365.934 778.8255 L 369.72083 776.2222" stroke-width="1.5" /><path d="M 369.72083 776.2222 L 369.72083 776.2222" stroke-width="1.5" /></g><g><path d="M 331.26074 868.75726 L 323.56873 879.40704 L 323.56873 879.40704 L 315.99506 888.4002 L 308.65805 895.97345 L 300.96603 902.1267 L 300.96603 902.1267 L 293.27402 906.3866 L 285.70035 908.98987 L 278.60004 909.58154 L 278.60004 909.58154 L 271.85474 908.98987 L 265.58276 907.21484 L 260.02084 903.42834 L 260.02084 903.42834 L 254.69562 897.275 L 249.60706 888.9919 L 244.8735 878.3421 L 244.8735 878.3421 L 240.49496 865.444 L 236.47144 850.29755 L 232.80295 833.3762 L 232.80295 833.3762 L 229.25278 814.6799 L 225.70264 794.20856 L 222.50748 772.79065 L 222.50748 772.79065 L 222.50748 772.79065" stroke-width="1.5" /></g><g><path d="M 200.61484 628.78156 L 197.53802 622.9833 L 194.34286 619.9067 L 191.14774 618.96 L 191.14774 618.96 L 187.71591 619.07837 L 184.16574 619.9067 L 180.3789 621.8 L 180.3789 621.8" stroke-width="2.0" /><path d="M 180.3789 621.8 L 176.35538 624.40326 L 172.56854 627.71655 L 168.90005 631.7398 L 168.90005 631.7398 L 165.23154 636.5914 L 161.91806 642.2713 L 158.84125 649.0162 L 158.84125 649.0162 L 156.11948 656.116 L 153.98938 662.7426 L 152.45096 669.01416 L 152.45096 669.01416 L 151.62259 675.049 L 151.62259 680.37396 L 152.09595 684.87054 L 152.09595 684.87054 L 153.16101 688.3021 L 154.9361 691.26044 L 157.18451 693.627 L 157.18451 693.627 L 160.02466 695.16534 L 163.33813 695.8753 L 167.24332 695.2837 L 167.24332 695.2837 L 171.74017 693.27203 L 176.71042 689.13043 L 182.03564 682.1489 L 182.03564 682.1489" stroke-width="1.5" /><path d="M 182.03564 682.1489 L 182.03564 682.1489" stroke-width="1.5" /></g><g><path d="M 218.6023 595.29376 L 219.43066 589.8505 L 220.02237 584.0523 L 219.66736 580.6207 L 219.66736 580.6207" stroke-width="1.5" /><path d="M 219.66736 580.6207 L 218.72064 579.9107 L 218.72064 579.9107" stroke-width="2.0" /><path d="M 218.72064 579.9107 L 217.0639 580.26575 L 214.81546 581.68567 L 214.81546 581.68567" stroke-width="2.5" /><path d="M 214.81546 581.68567 L 211.857 585.4723 L 210.20026 588.5489 L 210.20026 588.5489" stroke-width="3.0" /><path d="M 210.20026 588.5489 L 208.66187 592.80884 L 207.5968 598.1337 L 206.88678 604.64197 L 206.88678 604.64197 L 206.76843 611.9785 L 207.24179 619.9067 L 208.30685 627.9532 L 208.30685 627.9532 L 209.9636 636.11804 L 212.33035 644.63794 L 215.17047 653.1578 L 215.17047 653.1578 L 218.72064 661.08594 L 222.86249 668.30414 L 227.35938 675.2857 L 227.35938 675.2857" stroke-width="2.5" /><path d="M 227.35938 675.2857 L 232.21124 681.6756 L 237.18149 686.88214 L 242.1517 690.43207 L 242.1517 690.43207" stroke-width="2.0" /><path d="M 242.1517 690.43207 L 247.35861 692.4437 L 252.68384 692.7987" stroke-width="1.5" /><path d="M 252.68384 692.7987 L 252.68384 692.7987" stroke-width="1.5" /></g><g><path d="M 294.22073 609.3752 L 293.5107 606.89026 L 292.80066 606.06195 L 292.80066 606.06195" stroke-width="2.5" /><path d="M 292.80066 606.06195 L 291.49896 606.2986 L 291.49896 606.2986" stroke-width="3.0" /><path d="M 291.49896 606.2986 L 291.3806 606.5353 L 291.61728 607.0086 L 291.61728 607.0086 L 291.85397 607.3636 L 291.85397 607.3636 L 293.86572 610.79517 L 296.11417 614.93677 L 298.95428 620.735 L 298.95428 620.735 L 302.3861 627.1249 L 306.2913 634.4614 L 310.55148 642.98126 L 310.55148 642.98126 L 314.81168 651.9744 L 319.30853 661.2043 L 324.16043 670.9075 L 324.16043 670.9075 L 329.13065 681.0839 L 334.1009 691.26044 L 338.7161 701.20026 L 338.7161 701.20026" stroke-width="2.5" /><path d="M 338.7161 701.20026 L 342.7396 710.1934 L 346.28976 718.2399 L 346.28976 718.2399" stroke-width="2.0" /><path d="M 346.28976 718.2399 L 346.28976 718.2399" stroke-width="2.0" /></g><g><path d="M 325.81717 720.0149 L 326.05386 719.89655 L 326.05386 719.89655 L 326.29053 719.54156 L 326.7639 719.1866 L 326.7639 719.1866 L 328.18396 718.0033 L 329.604 717.4116 L 333.8642 715.755 L 333.8642 715.755" stroke-width="3.0" /><path d="M 333.8642 715.755 L 340.2545 712.56006 L 348.89322 707.9451 L 358.952 701.31854 L 358.952 701.31854" stroke-width="2.5" /><path d="M 358.952 701.31854 L 369.83917 692.7987 L 381.5547 682.62225 L 381.5547 682.62225" stroke-width="2.0" /><path d="M 381.5547 682.62225 L 381.5547 682.62225" stroke-width="2.0" /></g><g><path d="M 496.69824 473.6493 L 496.69824 473.76764 L 497.17163 473.76764 L 497.17163 473.76764" stroke-width="3.5" /><path d="M 497.17163 473.76764 L 497.88165 473.6493 L 497.88165 473.6493 L 501.07678 475.77924 L 505.21863 478.14587 L 510.66223 480.8675 L 517.5259 483.47076 L 517.5259 483.47076 L 525.8096 485.36407 L 535.51337 486.6657 L 535.51337 486.6657" stroke-width="3.0" /><path d="M 535.51337 486.6657 L 545.80884 486.6657 L 556.22266 485.60077 L 566.51807 483.35248" stroke-width="2.5" /><path d="M 566.51807 483.35248 L 566.51807 483.35248" stroke-width="2.5" /></g><g><path d="M 639.17804 451.403 L 640.36145 450.9297 L 643.3199 450.10138 L 646.3967 449.86475 L 646.3967 449.86475 L 647.6984 450.45636 L 647.6984 450.45636" stroke-width="2.0" /><path d="M 647.6984 450.45636 L 649.1185 451.403 L 651.722 453.53296 L 651.722 453.53296" stroke-width="2.5" /><path d="M 651.722 453.53296 L 655.9822 456.49127 L 655.9822 456.49127 L 658.82227 458.50287 L 662.01746 460.75116 L 665.56757 463.47278 L 669.4728 466.4311 L 669.4728 466.4311 L 673.96967 469.38934 L 678.82153 472.2293 L 678.82153 472.2293 L 683.55505 474.7143 L 688.5253 476.9626 L 693.49554 479.32916 L 698.5841 481.22247 L 698.5841 481.22247" stroke-width="2.0" /><path d="M 698.5841 481.22247 L 698.5841 481.22247" stroke-width="2.0" /></g><g><path d="M 769.469 489.03235 L 772.6641 491.63562 L 776.9243 494.59393 L 776.9243 494.59393 L 781.30286 497.78888 L 785.6814 501.1021 L 789.9416 504.17877 L 794.08344 507.25537 L 794.08344 507.25537 L 798.3436 509.977 L 803.1955 512.3436 L 808.1657 514.7102 L 808.1657 514.7102 L 813.2543 517.07684 L 818.22455 519.0885 L 823.3131 520.86346 L 823.3131 520.86346 L 828.4017 522.28345 L 833.3719 522.9934 L 838.22375 523.70337 L 838.22375 523.70337" stroke-width="1.0" /><path d="M 838.22375 523.70337 L 842.6023 524.29504 L 846.2708 524.0584 L 849.46594 523.94006 L 849.46594 523.94006" stroke-width="1.5" /><path d="M 849.46594 523.94006 L 852.4244 523.46674 L 854.7912 522.9934 L 854.7912 522.9934 L 856.6846 522.6384 L 856.8029 522.40173 L 856.8029 522.40173" stroke-width="2.0" /><path d="M 856.8029 522.40173 L 856.8029 521.9284 L 856.8029 521.9284" stroke-width="2.5" /><path d="M 856.8029 521.9284 L 856.5663 521.3368 L 855.1462 516.48517 L 855.1462 516.48517 L 853.9628 510.21362 L 853.6078 500.86548 L 854.5545 487.37573 L 856.5663 469.1527 L 856.5663 469.1527" stroke-width="2.0" /><path d="M 856.5663 469.1527 L 856.5663 469.1527" stroke-width="2.0" /></g></svg>